<svg width="136" height="40" viewBox="0 0 136 40" fill="none" xmlns="http://www.w3.org/2000/svg"><g clip-path="url(#clip0_232_412)"><path d="M130.963 0H5.037C2.255 0 0 2.239 0 5v30c0 2.761 2.255 5 5.037 5h125.926c2.782 0 5.037-2.239 5.037-5V5c0-2.761-2.255-5-5.037-5z" fill="#000"/><path d="M130.963.8c2.337 0 4.231 1.88 4.231 4.2v30c0 2.32-1.894 4.2-4.231 4.2H5.037C2.7 39.2.806 37.32.806 35V5C.806 2.68 2.7.8 5.037.8h125.926zm0-.8H5.037C2.267 0 0 2.25 0 5v30c0 2.75 2.267 5 5.037 5h125.926c2.77 0 5.037-2.25 5.037-5V5c0-2.75-2.267-5-5.037-5z" fill="#A6A6A6"/><path d="M73.302 6.273v4.977h-.95L70.22 7.798v3.452h-.946V6.273h.947l2.138 3.456V6.273h.943zm-4.831 2.362v.257c0 .376-.05.714-.151 1.015a2.191 2.191 0 01-.43.762 1.89 1.89 0 01-.665.482 2.131 2.131 0 01-.858.167 2.15 2.15 0 01-.854-.167 1.912 1.912 0 01-.668-.482 2.204 2.204 0 01-.437-.762 3.126 3.126 0 01-.155-1.015v-.257c0-.378.052-.716.155-1.015.103-.298.248-.552.434-.762.186-.212.407-.374.665-.485.259-.112.544-.168.853-.168.315 0 .6.056.858.168.257.111.478.273.664.485.189.21.333.464.434.762.104.299.155.637.155 1.015zm-.957.257v-.264c0-.27-.025-.509-.076-.714a1.543 1.543 0 00-.224-.523.952.952 0 00-.365-.318 1.07 1.07 0 00-.489-.11 1.06 1.06 0 00-.489.11.967.967 0 00-.358.318 1.592 1.592 0 00-.227.523 3.03 3.03 0 00-.076.714v.264c0 .268.026.507.076.714.053.207.129.383.227.526.101.142.223.249.365.322.143.072.306.109.49.109.183 0 .346-.037.488-.11a.961.961 0 00.358-.32c.1-.144.174-.32.224-.527a3.06 3.06 0 00.076-.714zm-6.873-2.619v4.977h-.943V6.273h.943zm1.556 0v.742H58.16v-.742h4.038zm-4.627 0v4.977h-.947V6.273h.947zm-4.78 0v4.977h-.943V6.273h.944zm1.557 0v.742h-4.04v-.742h4.04zm-4.435 4.239v.738h-2.665v-.738h2.665zm-2.376-4.239v4.977h-.947V6.273h.947zm2.028 2.055v.72h-2.317v-.72h2.317zm.338-2.055v.742h-2.655v-.742h2.655zm-4.208 2.403v1.938c-.074.094-.19.195-.348.304-.156.11-.36.204-.613.284a3.205 3.205 0 01-.93.116c-.319 0-.61-.052-.874-.157a1.888 1.888 0 01-.682-.468 2.108 2.108 0 01-.44-.752 3.075 3.075 0 01-.156-1.015v-.328c0-.38.049-.72.145-1.015a2.14 2.14 0 01.42-.752 1.81 1.81 0 01.658-.469c.257-.107.544-.16.86-.16.425 0 .774.07 1.047.208.276.14.487.33.634.574.147.242.239.52.276.834h-.923a1.254 1.254 0 00-.152-.454.779.779 0 00-.324-.308 1.117 1.117 0 00-.537-.113.972.972 0 00-.85.427 1.54 1.54 0 00-.22.517c-.049.205-.073.44-.073.704v.335c0 .266.028.503.083.71.055.206.134.379.237.52.106.14.236.245.39.318.156.07.332.106.53.106.179 0 .327-.015.444-.044.12-.032.215-.07.286-.113a.81.81 0 00.165-.127v-.933h-.995v-.687h1.942zM68.645 21.75c-2.368 0-4.302 1.79-4.302 4.25s1.934 4.25 4.302 4.25c2.367 0 4.301-1.8 4.301-4.25s-1.934-4.25-4.301-4.25zm0 6.83c-1.3 0-2.418-1.06-2.418-2.58s1.118-2.58 2.418-2.58 2.418 1.05 2.418 2.58-1.119 2.58-2.418 2.58zm-9.38-6.83c-2.367 0-4.3 1.79-4.3 4.25s1.933 4.25 4.3 4.25c2.368 0 4.303-1.8 4.303-4.25s-1.935-4.25-4.302-4.25zm0 6.83c-1.299 0-2.417-1.06-2.417-2.58s1.118-2.58 2.418-2.58 2.418 1.05 2.418 2.58-1.119 2.58-2.418 2.58zm-11.161-5.53v1.8h4.352c-.131 1.01-.474 1.76-.988 2.27-.634.63-1.621 1.32-3.354 1.32-2.68 0-4.775-2.14-4.775-4.8 0-2.66 2.095-4.8 4.775-4.8 1.44 0 2.498.56 3.274 1.29l1.28-1.27c-1.089-1.03-2.53-1.82-4.564-1.82-3.667 0-6.75 2.96-6.75 6.61 0 3.65 3.083 6.61 6.75 6.61 1.984 0 3.475-.64 4.644-1.85 1.199-1.19 1.572-2.87 1.572-4.22 0-.42-.03-.81-.101-1.13h-6.115v-.01zm45.645 1.4c-.352-.95-1.44-2.71-3.667-2.71-2.226 0-4.04 1.72-4.04 4.25 0 2.38 1.814 4.25 4.252 4.25a4.252 4.252 0 003.566-1.88l-1.46-.97c-.484.71-1.149 1.18-2.106 1.18-.957 0-1.642-.43-2.075-1.29l5.732-2.35-.191-.48h-.01zm-5.843 1.42c-.05-1.64 1.28-2.48 2.237-2.48.745 0 1.38.37 1.592.9l-3.829 1.58zm-4.654 4.12h1.884v-12.5h-1.884v12.5zm-3.082-7.3h-.06c-.424-.5-1.23-.95-2.257-.95-2.146 0-4.11 1.87-4.11 4.27 0 2.4 1.964 4.24 4.11 4.24 1.017 0 1.833-.45 2.256-.97h.06v.61c0 1.63-.876 2.5-2.286 2.5-1.149 0-1.864-.82-2.156-1.51l-1.642.68c.473 1.13 1.723 2.51 3.798 2.51 2.206 0 4.07-1.29 4.07-4.43V22h-1.784v.69zm-2.156 5.88c-1.3 0-2.388-1.08-2.388-2.56s1.088-2.59 2.388-2.59c1.3 0 2.287 1.1 2.287 2.59 0 1.49-1.008 2.56-2.287 2.56zm24.56-11.08h-4.503v12.5h1.884v-4.74h2.629c2.086 0 4.131-1.5 4.131-3.88s-2.045-3.88-4.131-3.88h-.01zm.051 6.03h-2.67v-4.29h2.67c1.41 0 2.206 1.16 2.206 2.14 0 .98-.796 2.14-2.206 2.14v.01zm11.615-1.8c-1.36 0-2.77.6-3.355 1.91l1.673.69c.352-.69 1.017-.92 1.712-.92.967 0 1.965.58 1.975 1.61v.13a4.235 4.235 0 00-1.965-.48c-1.803 0-3.626.98-3.626 2.81 0 1.67 1.47 2.75 3.123 2.75 1.259 0 1.964-.56 2.397-1.22h.061v.96h1.813v-4.79c0-2.22-1.672-3.46-3.828-3.46l.02.01zm-.232 6.85c-.614 0-1.47-.31-1.47-1.06 0-.96 1.067-1.33 1.994-1.33.826 0 1.219.18 1.713.42-.141 1.16-1.149 1.98-2.237 1.98v-.01zm10.659-6.58l-2.156 5.42h-.061l-2.236-5.42h-2.025l3.355 7.58-1.914 4.21h1.964l5.168-11.79h-2.095zm-16.935 8h1.884v-12.5h-1.884v12.5z" fill="#fff"/><path d="M20.873 19.42l-10.729 11.3a2.895 2.895 0 002.801 2.13c.534 0 1.038-.14 1.47-.4l.031-.02 12.069-6.91-5.652-6.11.01.01z" fill="#EA4335"/><path d="M31.723 17.5h-.01l-5.208-3.01-5.873 5.19 5.893 5.85 5.188-2.97a2.878 2.878 0 001.521-2.53c0-1.09-.604-2.04-1.51-2.52v-.01z" fill="#FBBC04"/><path d="M10.145 9.28c-.06.24-.101.48-.101.74v19.96c0 .26.03.5.1.74l11.092-11.01L10.145 9.28z" fill="#4285F4"/><path d="M20.954 20l5.55-5.51-12.058-6.94a2.907 2.907 0 00-1.5-.41c-1.34 0-2.469.91-2.801 2.13l10.809 10.72V20z" fill="#34A853"/></g><defs><clipPath id="clip0_232_412"><path fill="#fff" d="M0 0h136v40H0z"/></clipPath></defs></svg>